<svg xmlns="http://www.w3.org/2000/svg" xmlns:xlink="http://www.w3.org/1999/xlink" version="1.1" x="0px" y="0px" viewBox="0 0 100 125" enable-background="new 0 0 100 100" xml:space="preserve">
	<path fill="#000000" d="M50,54c20.986,0,38,17.014,38,38h4c0-23.196-18.804-42-42-42S8,68.804,8,92h4C12,71.014,29.013,54,50,54z"/>
	<path fill="#000000" d="M50,8C37.297,8,27,18.297,27,31c0,12.703,10.297,23,23,23c12.703,0,23-10.297,23-23C73,18.297,62.703,8,50,8  z M50,50c-10.494,0-19-8.506-19-19c0-10.494,8.506-19,19-19c10.494,0,19,8.506,19,19C69,41.494,60.494,50,50,50z"/>
</svg>